<?xml version="1.0" encoding="UTF-8"?>
<svg id="Layer_1" xmlns="http://www.w3.org/2000/svg" version="1.1" viewBox="0 0 300 68">
  <!-- Generator: Adobe Illustrator 29.5.1, SVG Export Plug-In . SVG Version: 2.1.0 Build 141)  -->
  <defs>
    <style>
      .st0 {
        fill: #c2c5a6;
      }

      .st1 {
        fill: #1b2621;
      }
    </style>
  </defs>
  <rect class="st0" y="0" width="300" height="68"/>
  <path class="st1" d="M157.1,52.3h-4.5c-.1,0-.2,0-.3,0-.3,0-.5-.2-.3-.5,0-.1.1-.1.2-.1.2,0,.4,0,.6,0s.3,0,.3-.3,0-.2,0-.3v-11.7c0,0,0-.2,0-.3,0-.2,0-.3-.3-.3-.2,0-.4,0-.6,0-.2,0-.3,0-.3-.3s0-.3.2-.3c0,0,.2,0,.3,0h8.6c.1,0,.2,0,.3,0,.2,0,.3,0,.3.3,0,.8,0,1.6,0,2.4,0,.2,0,.3-.3.3-.2,0-.3,0-.3-.3,0-.2,0-.5,0-.7,0-.8-.6-1.4-1.4-1.4-1.5,0-2.9,0-4.4,0-.4,0-.4,0-.4.4,0,1.8,0,3.5,0,5.3,0,.3,0,.3.3.3.9,0,1.7,0,2.6,0,.3,0,.5,0,.8-.2.4-.2.6-.4.6-.9,0-.2,0-.5,0-.7,0-.2,0-.3.3-.3,0,0,.2,0,.2,0,.2,0,.3,0,.3.3,0,.8,0,1.5,0,2.3s0,1,0,1.6c0,.3,0,.3-.3.3-.4,0-.4,0-.4-.4,0-.2,0-.3,0-.5,0-.6-.3-1-1-1-.4,0-.9,0-1.4,0s-1,0-1.5,0c-.4,0-.4,0-.4.4,0,1.3,0,2.7,0,4s0,1,0,1.5c0,.3,0,.3.3.3,1.7,0,3.4,0,5.1,0,.8,0,1.3-.5,1.4-1.3,0-.3,0-.6,0-.9,0-.2.1-.2.3-.2.2,0,.3,0,.3.2,0,.9,0,1.7,0,2.6,0,.2,0,.2-.3.2-.2,0-.4,0-.7,0h-4.3Z"/>
  <path class="st1" d="M148.5,23.3c-1.2-1.3-2.3-2.5-3.4-3.8,0,0,0,0,0,0,.2,0,.3.1.5.2,1.2.6,2.4,1.3,3.6,1.9,0,0,.2,0,.2.1.2.1.3,0,.3-.1,0-.3.1-.7.2-1,.2-1.3.4-2.6.6-3.8,0-.4,0-.4.1-.1.1.8.2,1.6.4,2.4.1.8.2,1.6.4,2.5,0,.1,0,.3.2.4,1.5-.8,2.9-1.5,4.5-2.4-.1.3-.3.4-.4.6-.8.9-1.7,1.9-2.5,2.8,0,.1-.2.2-.3.3,0,.1,0,.2,0,.3,0,0,.2,0,.3.1,1.2.5,2.4,1,3.6,1.5.2,0,.4.1.6.3-.7,0-1.3,0-2-.1-.9,0-1.9-.1-2.8-.2-.4,0-.4,0-.3.3.4,1.3.8,2.6,1.2,3.9,0,.2.1.5.2.8-1-1.4-1.9-2.7-2.9-4.1-1,1.4-2,2.8-3,4.1,0,0,0,0,0,0,.2-.6.3-1.2.5-1.8.3-.9.5-1.8.8-2.7.1-.4.1-.4-.3-.4-1.6.1-3.1.2-4.7.2,1.5-.6,3.1-1.3,4.7-1.9h0Z"/>
  <path class="st1" d="M185.3,52.3h-4.5c-.1,0-.2,0-.3,0-.3,0-.3,0-.3-.3s0-.3.3-.3c.2,0,.4,0,.6,0,.3,0,.3,0,.3-.4,0,0,0-.2,0-.2v-11.7c0-.6,0-.6-.6-.6h-.3c-.4,0-.4,0-.4-.3,0-.3,0-.3.4-.3,1.1,0,2.2,0,3.3,0s.6,0,.8,0c.2,0,.3.1.3.3,0,.2,0,.3-.3.3-.3,0-.7,0-1,0-.4,0-.4,0-.4.4h0v11.8c0,.6,0,.6.6.6,1.4,0,2.8,0,4.2,0,1.3,0,1.9-.7,1.8-1.8,0,0,0-.2,0-.3,0-.3.2-.5.5-.3.2,0,.1.2.1.3,0,.6,0,1.3,0,1.9,0,.3.1.6,0,.8-.2.2-.5,0-.8,0-1.5,0-2.9,0-4.4,0h0Z"/>
  <path class="st1" d="M171.7,52.3h-4.6c0,0-.2,0-.3,0-.3,0-.4-.3-.3-.5,0-.1.2,0,.2,0,.2,0,.5,0,.7,0,.2,0,.3,0,.3-.3,0,0,0-.2,0-.3v-11.7h0c0-.4-.2-.6-.5-.6-.2,0-.4,0-.6,0-.2,0-.2-.1-.2-.3,0-.2,0-.3.3-.3,1,0,2,0,2.9,0s.9,0,1.3,0c.2,0,.3,0,.3.3s0,.3-.3.3c-.3,0-.7,0-1,0-.3,0-.3,0-.3.3,0,0,0,.2,0,.2v11.7c0,.6,0,.6.6.6h4.4c.3,0,.6,0,.9-.2.5-.3.8-.7.7-1.3,0-.2,0-.5,0-.7,0-.2.1-.3.3-.3s.3,0,.3.3c0,.6,0,1.3,0,1.9,0,.6-.3.8-.9.8h-4.3Z"/>
  <path class="st1" d="M140.6,45.1v-5.6c0-.1,0-.2,0-.4,0-.2,0-.2-.3-.2-.2,0-.4,0-.7,0-.2,0-.2-.1-.2-.2,0-.1,0-.3.2-.3.1,0,.2,0,.3,0h7.6c.5,0,.5,0,.6.5.2.7.5,1.4.7,2,0,.1.3.3,0,.5-.3.1-.3,0-.5-.2-.5-1.1-1.4-1.8-2.6-2.1-.1,0-.3,0-.4,0-1,0-2.1,0-3.1,0-.4,0-.4,0-.4.4,0,1.7,0,3.3,0,5,0,.4,0,.4.4.4.9,0,1.7,0,2.6,0s.5,0,.8-.2c.4-.2.6-.5.6-.9,0-.2,0-.4,0-.6,0-.4,0-.4.3-.4.3,0,.2.3.2.4,0,.7,0,1.3,0,2s0,1.3,0,2c0,.2,0,.3-.3.3-.2,0-.3,0-.3-.2,0-.3,0-.5,0-.8,0-.7-.4-1.1-1.1-1.1-.9,0-1.9,0-2.8,0-.4,0-.4,0-.4.4,0,1.4,0,2.8,0,4.2s0,.7,0,1.1c0,.5.3.7.8.8,0,0,0,0,.1,0,.3,0,.5.2.3.5,0,0,0,0-.1.1,0,0-.1,0-.2,0-1.1,0-2.2,0-3.3,0-.3,0-.3,0-.3-.3,0-.2,0-.3.3-.3.2,0,.4,0,.6,0,.2,0,.3-.2.3-.4,0-.1,0-.3,0-.4v-5.6h0Z"/>
  <path class="st1" d="M131.4,38.3h3.9c.5,0,.4,0,.6.4.3.7.5,1.5.8,2.2,0,.1.1.3-.1.4-.2,0-.3,0-.4-.2-.4-.9-1.1-1.6-2.1-2-.4-.2-.8-.2-1.2-.2-1,0-1.9,0-2.9,0-.4,0-.4,0-.4.4,0,1.7,0,3.3,0,5,0,.4,0,.4.4.4.8,0,1.7,0,2.5,0,.3,0,.5,0,.8-.2.4-.2.6-.5.6-.9,0-.2,0-.4,0-.6,0-.2,0-.2.3-.2s.3,0,.2.2c0,0,0,0,0,.1,0,1.3,0,2.6,0,3.9,0,.3,0,.4-.3.4-.1,0-.2,0-.2-.2,0-.2,0-.5,0-.7,0-.8-.4-1.2-1.2-1.2-.9,0-1.8,0-2.7,0-.4,0-.4,0-.4.4,0,1.8,0,3.5,0,5.3,0,.5.2.7.8.8,0,0,0,0,.1,0,.3,0,.5.2.3.5,0,0,0,0,0,0,0,0,0,0-.1,0h-3.5c-.2,0-.2-.2-.2-.3,0-.2,0-.3.2-.3.1,0,.2,0,.4,0,.5,0,.7-.2.7-.7,0-.2,0-.3,0-.5v-11.2c0-.3-.2-.5-.5-.5,0,0-.2,0-.3,0-.3,0-.3,0-.3-.3,0-.1,0-.2.2-.2.1,0,.2,0,.3,0h3.8Z"/>
  <path class="st1" d="M198.5,41.2c-.2.1-.2.3-.2.4-.3.8-.7,1.6-1,2.4-.2.6-.3.6-.9.5,0,0,0-.1,0-.2.8-1.9,1.5-3.7,2.3-5.6,0-.2.1-.4.4-.4.3,0,.4,0,.5.3.6,1.4,1.1,2.8,1.7,4.2,1.2,2.8,2.4,5.7,3.6,8.5.2.4.2.4.7.4h.3c.4,0,.4,0,.4.3,0,.3-.2.2-.4.2-.8,0-1.6,0-2.4,0s-.9,0-1.4,0c-.2,0-.3,0-.3-.3,0-.3.2-.2.3-.2s.4,0,.7,0c.1,0,.2,0,.2-.2,0,0,0-.2,0-.3-1.4-3.3-2.7-6.6-4.1-9.9,0,0,0-.2-.2-.3h0Z"/>
  <path class="st1" d="M193.9,52.3h-.1c-.5,0-.6-.2-.5-.7,0-.3.2-.6.4-.9.7-1.1,1.4-2,2.4-2.9.2-.2.6-.5.9-.7.8-.5,1.6-1,2.5-1.4.1,0,.2-.1.3-.1.2,0,.4.1.5.3,0,.2,0,.4-.2.5-.5.2-1,.5-1.5.8-1.8,1.1-3,2.6-3.6,4.6-.1.4-.1.4-.5.4-.1,0-.2,0-.4,0h0Z"/>
  <path class="st1" d="M110.1,45.6c0-2.1.7-4,2.2-5.5,1.4-1.4,3.2-2.1,5.2-2.3,2.1-.1,4.1.3,5.8,1.6,1.5,1.2,2.3,2.7,2.6,4.4.3,2.1,0,4.1-1.2,5.9-1.7,2.6-4.3,3.6-7.5,3.4-4.3-.3-6.8-3.5-7.1-7,0-.2,0-.3,0-.4h0ZM123.9,45.3c0-.3,0-.6,0-.9-.1-1.6-.6-3.1-1.8-4.3-1.1-1.2-2.5-1.9-4.3-1.8-2.4.2-4,1.5-5,3.6-.7,1.6-.8,3.2-.6,4.9.2,1.6.8,3.1,2.1,4.3,2.3,2.3,5.9,2.1,7.9-.4,1.3-1.6,1.7-3.4,1.7-5.4h0Z"/>
  <path class="st1" d="M106.8,48.1c-.2,0-.3,0-.5.1-.1.1-.2.2-.2.4,0,.2,0,.4,0,.6,0,.6-.2,1-.6,1.5-.9,1.1-2.1,1.4-3.4,1.4-1.1-.1-2.3-.6-3.2-1.5-1.2-1.1-1.8-2.5-2-4.1-.1-.9-.1-1.7,0-2.5.3-1.3.8-2.6,1.6-3.7,0,0,0,0,0,0,.8-1.1,1.9-1.7,3.2-1.7,0,0,.2,0,.3,0,.4,0,.8,0,1.2,0,.2,0,.3,0,.4,0,.9.2,1.6.6,2.1,1.3.2.3.4.7.3,1.1,0,.2,0,.4,0,.5,0,.2,0,.4.2.5.1.1.2.1.4.1.2,0,.1-.2.1-.3,0-.5,0-.9,0-1.4s0-.9,0-1.3c0-.2,0-.3-.3-.4-.3-.1-.5-.2-.8-.3-1.2-.4-2.3-.5-3.6-.5h0c0,0-.1,0-.2,0-2,.1-3.7.8-5.1,2.2-.5.6-1,1.2-1.3,1.8-.5,1.1-.8,2.2-.8,3.5,0,0,0,0,0,0,0,.1,0,.2,0,.4.2,3.4,2.7,6.4,6.9,6.7.1,0,.3,0,.4,0,1.3,0,1.4,0,4.5-1.2.2,0,.1-.2.1-.3,0-.9,0-1.7,0-2.6,0-.1,0-.3,0-.4h0Z"/>
</svg>